<!--?xml version="1.0" standalone="no"?-->
              <svg id="sw-js-blob-svg" viewBox="0 0 100 100" xmlns="http://www.w3.org/2000/svg" version="1.1">
                    <defs> 
                        <linearGradient id="sw-gradient" x1="0" x2="1" y1="1" y2="0">
                            <stop id="stop1" stop-color="rgba(248, 117, 55, 1)" offset="0%"></stop>
                            <stop id="stop2" stop-color="rgba(251, 168, 31, 1)" offset="100%"></stop>
                        </linearGradient>
                    </defs>
                <path fill="url(#sw-gradient)" d="M21.1,-27.4C26.7,-20.3,30.4,-13.2,31.6,-5.6C32.9,1.9,31.7,9.8,28.5,17.4C25.3,25.1,19.9,32.5,12.4,36.2C4.9,39.8,-4.7,39.6,-11.5,35.5C-18.3,31.3,-22.2,23.2,-27.2,15.3C-32.2,7.5,-38.2,-0.2,-37.6,-7.2C-37,-14.2,-29.9,-20.6,-22.5,-27.4C-15.1,-34.2,-7.6,-41.3,0.1,-41.4C7.7,-41.5,15.4,-34.5,21.1,-27.4Z"  transform="translate(50 50)" stroke-width="0" style="transition: all 0.3s ease 0s;"></path>
              </svg>