<!--?xml version="1.0" standalone="no"?-->
              <svg id="sw-js-blob-svg" viewBox="0 0 100 100" xmlns="http://www.w3.org/2000/svg" version="1.1">
                    <defs> 
                        <linearGradient id="sw-gradient" x1="0" x2="1" y1="1" y2="0">
                            <stop id="stop1" stop-color="rgba(35.563, 3.43, 121.495, 1)" offset="0%"></stop>
                            <stop id="stop2" stop-color="rgba(149.758, 31, 251, 1)" offset="100%"></stop>
                        </linearGradient>
                    </defs>
                <path fill="url(#sw-gradient)" d="M13.8,-14.5C21,-10.3,32.2,-9,37.2,-3.2C42.2,2.6,41.1,12.9,36.5,21.3C31.9,29.7,23.8,36.3,16.6,33.7C9.5,31.1,3.4,19.4,-1.7,13.7C-6.8,7.9,-10.9,8.3,-17.3,5.8C-23.8,3.3,-32.8,-2,-32.3,-5.9C-31.8,-9.7,-21.9,-12,-15,-16.3C-8,-20.5,-4,-26.6,-0.4,-26.2C3.3,-25.7,6.5,-18.7,13.8,-14.5Z" width="200%" height="100%" transform="translate(50 50)" stroke-width="0" style="transition: all 0.3s ease 0s;"></path>
              </svg>