<?xml version="1.0" standalone="no"?>
<svg xmlns:xlink="http://www.w3.org/1999/xlink" id="wave" style="transform:rotate(0deg); transition: 0.3s" viewBox="0 0 1440 270" version="1.1" xmlns="http://www.w3.org/2000/svg"><defs><linearGradient id="sw-gradient-0" x1="0" x2="0" y1="1" y2="0"><stop stop-color="rgba(243, 106, 62, 1)" offset="0%"/><stop stop-color="rgba(255, 179.902, 13.895, 1)" offset="100%"/></linearGradient></defs><path style="transform:translate(0, 0px); opacity:1" fill="url(#sw-gradient-0)" d="M0,108L34.3,99C68.6,90,137,72,206,76.5C274.3,81,343,108,411,121.5C480,135,549,135,617,121.5C685.7,108,754,81,823,76.5C891.4,72,960,90,1029,94.5C1097.1,99,1166,90,1234,94.5C1302.9,99,1371,117,1440,130.5C1508.6,144,1577,153,1646,139.5C1714.3,126,1783,90,1851,81C1920,72,1989,90,2057,94.5C2125.7,99,2194,90,2263,99C2331.4,108,2400,135,2469,157.5C2537.1,180,2606,198,2674,202.5C2742.9,207,2811,198,2880,189C2948.6,180,3017,171,3086,171C3154.3,171,3223,180,3291,193.5C3360,207,3429,225,3497,207C3565.7,189,3634,135,3703,130.5C3771.4,126,3840,171,3909,198C3977.1,225,4046,234,4114,229.5C4182.9,225,4251,207,4320,171C4388.6,135,4457,81,4526,72C4594.3,63,4663,99,4731,103.5C4800,108,4869,81,4903,67.5L4937.1,54L4937.1,270L4902.9,270C4868.6,270,4800,270,4731,270C4662.9,270,4594,270,4526,270C4457.1,270,4389,270,4320,270C4251.4,270,4183,270,4114,270C4045.7,270,3977,270,3909,270C3840,270,3771,270,3703,270C3634.3,270,3566,270,3497,270C3428.6,270,3360,270,3291,270C3222.9,270,3154,270,3086,270C3017.1,270,2949,270,2880,270C2811.4,270,2743,270,2674,270C2605.7,270,2537,270,2469,270C2400,270,2331,270,2263,270C2194.3,270,2126,270,2057,270C1988.6,270,1920,270,1851,270C1782.9,270,1714,270,1646,270C1577.1,270,1509,270,1440,270C1371.4,270,1303,270,1234,270C1165.7,270,1097,270,1029,270C960,270,891,270,823,270C754.3,270,686,270,617,270C548.6,270,480,270,411,270C342.9,270,274,270,206,270C137.1,270,69,270,34,270L0,270Z"/><defs><linearGradient id="sw-gradient-1" x1="0" x2="0" y1="1" y2="0"><stop stop-color="rgba(243, 62, 225.422, 1)" offset="0%"/><stop stop-color="rgba(22.435, 11, 255, 1)" offset="100%"/></linearGradient></defs><path style="transform:translate(0, 50px); opacity:0.9" fill="url(#sw-gradient-1)" d="M0,189L34.3,184.5C68.6,180,137,171,206,148.5C274.3,126,343,90,411,81C480,72,549,90,617,81C685.7,72,754,36,823,40.5C891.4,45,960,90,1029,103.5C1097.1,117,1166,99,1234,108C1302.9,117,1371,153,1440,157.5C1508.6,162,1577,135,1646,126C1714.3,117,1783,126,1851,112.5C1920,99,1989,63,2057,63C2125.7,63,2194,99,2263,99C2331.4,99,2400,63,2469,81C2537.1,99,2606,171,2674,202.5C2742.9,234,2811,225,2880,211.5C2948.6,198,3017,180,3086,153C3154.3,126,3223,90,3291,85.5C3360,81,3429,108,3497,126C3565.7,144,3634,153,3703,139.5C3771.4,126,3840,90,3909,99C3977.1,108,4046,162,4114,162C4182.9,162,4251,108,4320,76.5C4388.6,45,4457,36,4526,63C4594.3,90,4663,153,4731,171C4800,189,4869,162,4903,148.5L4937.1,135L4937.1,270L4902.9,270C4868.6,270,4800,270,4731,270C4662.9,270,4594,270,4526,270C4457.1,270,4389,270,4320,270C4251.4,270,4183,270,4114,270C4045.7,270,3977,270,3909,270C3840,270,3771,270,3703,270C3634.3,270,3566,270,3497,270C3428.6,270,3360,270,3291,270C3222.9,270,3154,270,3086,270C3017.1,270,2949,270,2880,270C2811.4,270,2743,270,2674,270C2605.7,270,2537,270,2469,270C2400,270,2331,270,2263,270C2194.3,270,2126,270,2057,270C1988.6,270,1920,270,1851,270C1782.9,270,1714,270,1646,270C1577.1,270,1509,270,1440,270C1371.4,270,1303,270,1234,270C1165.7,270,1097,270,1029,270C960,270,891,270,823,270C754.3,270,686,270,617,270C548.6,270,480,270,411,270C342.9,270,274,270,206,270C137.1,270,69,270,34,270L0,270Z"/></svg>